# xmcd CD database file
#
# Track frame offsets:
#	150
#	21451
#	48546
#	79694
#	108208
#	126055
#	150266
#	178486
#	242280
#
# Disc length: 3458 seconds
#
# Revision: 0
# Processed by: cddbd v1.5.2PL0 Copyright (c) Steve Scherf et al.
# Submitted via: CDex 1.51
#
DISCID=680d8009
DTITLE=Brubeck, Darius - {before it's too late}
DYEAR=2005
DGENRE=Jazz
TTITLE0=Before It's Too Late
TTITLE1=Sad Song
TTITLE2=Mighty Like the Blues
TTITLE3=Shadows
TTITLE4=Across Your Dreams
TTITLE5=Nombelelo
TTITLE6=Ravely Street
TTITLE7=Mamazala
TTITLE8=Smoke Gets in Your Eyes
EXTD=YEAR: 2005
EXTT0=
EXTT1=
EXTT2=
EXTT3=
EXTT4=
EXTT5=
EXTT6=
EXTT7=
EXTT8=
PLAYORDER=
